# xmcd
#
# Track frame offsets:
#	150
#	25250
#	46695
#	64952
#	88892
#	114492
#	131217
#	151387
#	169202
#	180745
#	199455
#	214472
#	239025
#
# Disc length: 3359 seconds
#
# Revision: 1
# Processed by: cddbd v1.5.1PL0 Copyright (c) Steve Scherf et al.
# Submitted via: CDex 1.50Beta5
#
DISCID=c80d1d0d
DTITLE=木村充揮 - ポー
DYEAR=1994
DGENRE=Rock
TTITLE0=いつか来た町
TTITLE1=Mのバラード
TTITLE2=サンシャインBABY
TTITLE3=ぽっかり
TTITLE4=バラの刺青
TTITLE5=ピンクの園
TTITLE6=宝石箱
TTITLE7=喉が乾いた男
TTITLE8=蜃気楼
TTITLE9=淋しがり屋のダンサー
TTITLE10=野良犬
TTITLE11=OSAKA RAINY BLUE
TTITLE12=何もいらない
EXTD=
EXTT0=
EXTT1=
EXTT2=
EXTT3=
EXTT4=
EXTT5=
EXTT6=
EXTT7=
EXTT8=
EXTT9=
EXTT10=
EXTT11=
EXTT12=
PLAYORDER=
